<?xml version="1.0" encoding="utf-8"?>
<!-- Generator: Adobe Illustrator 27.0.1, SVG Export Plug-In . SVG Version: 6.00 Build 0)  -->
<svg version="1.1" xmlns="http://www.w3.org/2000/svg" xmlns:xlink="http://www.w3.org/1999/xlink" x="0px" y="0px"
	 viewBox="0 0 3710 3710" style="enable-background:new 0 0 3710 3710;" xml:space="preserve">
<style type="text/css">
	.st0{display:none;}
	.st1{display:inline;}
	.st2{fill:#FFFFFF;}
	.st3{fill:#F4F7FA;}
	.st4{clip-path:url(#SVGID_00000044180029486767378820000010065176107993465756_);}
	.st5{fill:url(#SVGID_1_);}
	.st6{opacity:0.8;clip-path:url(#SVGID_00000124853581046134780070000016521969501020200861_);}
	.st7{fill:#FCFDFE;}
	
		.st8{clip-path:url(#SVGID_00000055684208320248530790000017734910194541802679_);fill:url(#SVGID_00000000907286726720976080000016337027578957893785_);}
	.st9{opacity:0.8;clip-path:url(#SVGID_00000055684208320248530790000017734910194541802679_);}
	.st10{fill:url(#SVGID_00000148631308571240019460000006924453516855007924_);}
	.st11{fill:#26264F;}
	.st12{fill:url(#SVGID_00000087375074121928672610000008020330148254347933_);}
	.st13{fill:url(#SVGID_00000068661321730658413470000009900035491764790405_);}
	.st14{fill:url(#SVGID_00000161619008702772548250000013296415466583679410_);}
	.st15{fill:url(#SVGID_00000008110189507678004890000009224905562994979755_);}
	.st16{fill:url(#SVGID_00000022551710365150540730000005723779879920338366_);}
	.st17{fill:url(#SVGID_00000176753294423532573470000018278464735574917813_);}
	.st18{fill:url(#SVGID_00000163032430315851748940000005679233584391869360_);}
	.st19{opacity:0.3;fill:url(#SVGID_00000072250538295421377180000017996694654570187397_);}
	.st20{fill:url(#SVGID_00000170252818835288536270000001228143866295181217_);}
	.st21{fill:url(#SVGID_00000061468638291922455280000006335936001771350702_);}
	.st22{fill:url(#SVGID_00000105385573150762153730000011664622388379895180_);}
	.st23{fill:url(#SVGID_00000127757185740830436600000007236902264269587600_);}
	.st24{fill:url(#SVGID_00000109738146012719339290000016843852458851798145_);}
	.st25{fill:url(#SVGID_00000157272011732201371730000009552609781027820735_);}
	.st26{fill:url(#SVGID_00000106116781169508760080000015226704587957361553_);}
	.st27{fill:url(#SVGID_00000157274876219197397720000010356117921649659291_);}
	.st28{fill:url(#SVGID_00000122682006917764618570000015947026281658064310_);}
	.st29{opacity:0.3;fill:url(#SVGID_00000036225994658207980270000005086678305557339572_);}
	.st30{fill:#D8DEE8;}
	.st31{fill:url(#SVGID_00000101089039611721591070000007280436208084200861_);}
	.st32{fill:url(#SVGID_00000127020511341430886910000001277817337502945452_);}
	.st33{fill:url(#SVGID_00000038410623656099379210000000900077950962746036_);}
	.st34{fill:url(#SVGID_00000068679401851051644100000016383083931859474350_);}
	.st35{fill:url(#SVGID_00000004503814531443897920000011356725910286434481_);}
	.st36{fill:url(#SVGID_00000090283105414207617940000012460841170584286613_);}
	.st37{fill:url(#SVGID_00000155142077337996261820000004269983105138707117_);}
	.st38{fill:url(#SVGID_00000179624160658111627940000008602126158469786524_);}
	.st39{fill:url(#SVGID_00000144335944421256461430000003490276449638422701_);}
	.st40{fill:url(#SVGID_00000049213463093238387970000016058385318370842769_);}
	.st41{opacity:0.5;fill:#FFFFFF;}
	.st42{opacity:0.3;fill:url(#SVGID_00000029746640199145760340000007122189687596401086_);}
	.st43{fill:url(#SVGID_00000162339495025998160670000000564084688497236618_);}
	.st44{fill:url(#SVGID_00000003086984920093516380000008009849725850700418_);}
	.st45{fill:url(#SVGID_00000044165620240629287960000016922710202716866989_);}
	.st46{fill:url(#SVGID_00000148647051615137260720000011476085952388995764_);}
	.st47{fill:url(#SVGID_00000180355038379281468520000005784908303236964764_);}
	.st48{fill:url(#SVGID_00000178887949218482015420000011518739598748324782_);}
	.st49{fill:url(#SVGID_00000126304753724721106930000003976175773558125488_);}
	.st50{fill:url(#SVGID_00000177462661761876804340000015146859604940772536_);}
</style>
<g id="Background" class="st0">
	<g class="st1">
		<g>
			<rect class="st2" width="3710" height="3710"/>
		</g>
	</g>
</g>
<g id="Illustration">
	<g>
		<path class="st3" d="M1967.64,461.16c-309.34,123-338.97,437.41-617.49,464.39c-242.69,23.51-334.93-204.08-505.22-163.3
			c-259.4,62.12-422.48,680.55-318.3,1189.05c107.57,525.07,559.55,1223.07,1308.33,1270.71
			c840.67,53.48,1476.76-749.64,1515.6-1454.42c4.2-76.22,29-714.84-459.23-1092.09C2866.93,656.65,2385.82,294.89,1967.64,461.16z"
			/>
		<g>
			<defs>
				<rect id="SVGID_13_" x="1608.95" y="1350.35" width="1695.29" height="1864.1"/>
			</defs>
			<clipPath id="SVGID_00000150075385041488436310000008962188809665369781_">
				<use xlink:href="#SVGID_13_"  style="overflow:visible;"/>
			</clipPath>
			<g style="clip-path:url(#SVGID_00000150075385041488436310000008962188809665369781_);">
				<g>
					<g>
						
							<linearGradient id="SVGID_1_" gradientUnits="userSpaceOnUse" x1="-4477.5815" y1="-3209.6489" x2="-3903.0554" y2="463.2249" gradientTransform="matrix(-0.583 -0.8125 -0.8125 0.583 -1862.4246 659.3145)">
							<stop  offset="3.597120e-03" style="stop-color:#E38DDD"/>
							<stop  offset="1" style="stop-color:#9571F6"/>
						</linearGradient>
						<path class="st5" d="M1801.46,3494.45c-19.01-8.99-52.45-45.29-57.27-58.35c-32.04-86.91-102.61-245.72-67.04-336.95
							c6.07-15.58,81.83-7.36,96.49-18.72c49.57-6.48,67.17-5.66,111.27-34.97c130.19-86.54-10.02-373.5,260.32-370.94
							c198.02,1.87,329.85,112.95,400.82-172.44s456.89-722.42,688.64-432.35c133,166.48-115.52,348.28-85.13,551.53
							c28.88,193.14-85.97,307.29-295.02,349.95c-209.05,42.66-139.47,149.97-139.26,324.7c0.25,209.89-302.79,149.01-440.3,108.97
							C2164.24,3372.63,1860.52,3365.24,1801.46,3494.45z"/>
						<g>
							<defs>
								<path id="SVGID_16_" d="M1639.98,3060.57c0.16,144.55-5.63,291.65-6.26,437.22c76.17,31.65,166.54,67.02,214.96-23.55
									c67.33-125.92,316.13-102.35,426.6-69.55c136.73,40.6,440.42,100.9,440.01-108.83c-0.34-174.6-69.78-282.05,139.25-324.67
									c209.03-42.63,323.85-156.81,295.01-349.95c-30.35-203.26,218.09-384.96,85.13-551.52
									c-231.67-290.23-617.83,147.23-688.56,432.25s-203.64,175.43-400.69,172.27c-269.01-4.32-133.7,289.1-259,368.91
									C1788.22,3105.72,1737.63,3072.12,1639.98,3060.57z"/>
							</defs>
							<clipPath id="SVGID_00000145050682149837687180000000577614128665401004_">
								<use xlink:href="#SVGID_16_"  style="overflow:visible;"/>
							</clipPath>
							<g style="opacity:0.8;clip-path:url(#SVGID_00000145050682149837687180000000577614128665401004_);">
								<path class="st7" d="M1710.49,3276l-0.5-3.56c175.07-24.77,343.72-76.09,501.28-152.56
									c151.4-73.48,292.8-170.22,420.26-287.54c247.49-227.8,438.48-529.58,552.32-872.7l3.41,1.13
									c-114.04,343.7-305.37,646-553.3,874.21c-127.72,117.56-269.4,214.5-421.12,288.13
									C2054.95,3199.74,1885.94,3251.18,1710.49,3276z"/>
								<path class="st7" d="M2725.65,3382.77c-152.29-111.03-436.77-204.75-634.16-208.94l0.08-3.59
									c198.01,4.2,483.41,98.23,636.2,209.63L2725.65,3382.77z"/>
								<path class="st7" d="M1844.04,3255.56l-1.47-3.28c93.73-42.01,162.61-129.77,204.74-260.84
									c30.87-96.06,46.92-212.72,47.7-346.74l3.59,0.02c-0.78,134.39-16.89,251.42-47.87,347.82
									C2008.28,3124.62,1938.74,3213.12,1844.04,3255.56z"/>
								<path class="st7" d="M2668,2801.15l-1.63-3.2c172.25-88.1,373.97-61.3,512.86-23.32l-0.95,3.47
									C3040,2740.28,2839.23,2713.58,2668,2801.15z"/>
								<path class="st7" d="M2949.96,2459.58l-3.33-1.35c35.21-86.82,79.28-272.05-21.21-537.09l3.36-1.27
									c33.92,89.47,54.79,182.55,60.34,269.17C2995.51,2288.72,2982.34,2379.74,2949.96,2459.58z"/>
							</g>
						</g>
					</g>
				</g>
				<g>
					<g>
						<defs>
							<path id="SVGID_20_" d="M2270.16,3732.99c-105.77-15.55-211.44-33.54-316.91-53.95c-1.72,1.55-36.39-228.36,72.82-348.94
								c215.96-233.58,70.49-443.22,29-567.44c-66.41-175.17-32.37-388.06,160.56-348.19c187.96,34.34,216.47-352.61,184.03-650.71
								c-27.69-145.09,109.21-321.13,245.82-361.36c139.46-44.57,278.63,46.66,321.28,335.86
								c64.57,334.85-179.8,536.78-270.29,704.66c-89.04,164.8,118.09,298.15-48.63,444.17c-140.23,129.75-316.96,223.02-252.31,386
								C2461.95,3434.23,2446.05,3565.97,2270.16,3732.99z"/>
						</defs>
						<clipPath id="SVGID_00000116224862993337407610000014732155562535341736_">
							<use xlink:href="#SVGID_20_"  style="overflow:visible;"/>
						</clipPath>
						
							<linearGradient id="SVGID_00000164507326751755222310000001599832290085259931_" gradientUnits="userSpaceOnUse" x1="6.76" y1="-757.6624" x2="-752.7009" y2="1400.8075" gradientTransform="matrix(-0.8674 -0.4976 -0.4976 0.8674 2274.7078 2110.0093)">
							<stop  offset="0" style="stop-color:#FFC444"/>
							<stop  offset="0.9964" style="stop-color:#F36F56"/>
						</linearGradient>
						
							<path style="clip-path:url(#SVGID_00000116224862993337407610000014732155562535341736_);fill:url(#SVGID_00000164507326751755222310000001599832290085259931_);" d="
							M2270.16,3732.99c-105.77-15.55-211.44-33.54-316.91-53.95c-1.72,1.55-36.39-228.36,72.82-348.94
							c215.96-233.58,70.49-443.22,29-567.44c-65.74-175.04-31.16-364.58,146.99-367.38c197.59-6.98,233.41-334.02,197.6-631.52
							c-27.69-145.09,109.21-321.13,245.82-361.36c139.46-44.57,278.63,46.66,321.28,335.86
							c64.57,334.85-179.8,536.78-270.29,704.66c-89.04,164.8,118.09,298.15-48.63,444.17c-140.23,129.75-316.96,223.02-252.31,386
							C2461.95,3434.23,2446.05,3565.97,2270.16,3732.99z"/>
						<g style="opacity:0.8;clip-path:url(#SVGID_00000116224862993337407610000014732155562535341736_);">
							<path class="st7" d="M2128.36,3746.62l-3.59-0.04c-0.03-2.04,101.02-485.58,275.32-956.35
								c24.07-76.24,50.22-153.12,75.51-227.46c67.72-199.09,137.74-404.96,171-609.96c37.17-229.16,23.92-435.56-40.51-631
								l3.41-1.13c64.62,196,77.91,402.95,40.64,632.7c-33.3,205.29-103.38,411.31-171.15,610.54
								c-25.28,74.33-51.42,151.19-75.51,227.47C2229.81,3260.46,2128.59,3743.87,2128.36,3746.62z"/>
							<path class="st7" d="M2601.46,2177.67l-2.67-2.4c117.93-131.02,260.21-317.22,336.64-417.25
								c59.64-78.05,61.74-80.23,64.05-79.86l-0.55,3.55l0.28-1.77l0.68,1.62c-3,1.97-28.86,35.81-61.6,78.64
								C2861.82,1860.27,2719.48,2046.54,2601.46,2177.67z"/>
							<path class="st7" d="M2637.71,1998.16c-24.44-150.45-86.45-249.36-134.16-305.84c-53.14-62.91-101.02-89.41-105.84-89.85
								c0,0,0.36,0.03,0.78-0.25l-2-2.98c0.94-0.63,2.17-0.44,4.87,0.73c13.04,5.67,61.76,36.15,112.9,99.71
								c64.42,80.07,108.34,183.09,126.99,297.91L2637.71,1998.16z"/>
							<path class="st7" d="M2299.97,3098l-3.57-0.42c16.64-139.77-15.93-290.11-96.8-446.84
								c-42.17-81.73-95.95-161.79-159.84-237.97c-4.42-5.27-6.23-7.44-6.74-8.31l3.11-1.8c0.37,0.64,3.02,3.8,6.38,7.8
								c64.06,76.38,117.99,156.66,160.28,238.62C2284,2806.46,2316.7,2957.5,2299.97,3098z"/>
							<path class="st7" d="M2347.69,2950.77l-3.05-1.89c126.72-204.73,393.81-218.98,396.1-218.27l1.34,1.68l-1.23,1.77l-0.56-1.68
								l-0.17,1.75c-0.01,0-0.03,0-0.05,0C2735.37,2734.14,2473.31,2747.81,2347.69,2950.77z M2739.69,2730.66l0.57,1.7
								L2739.69,2730.66z"/>
							<path class="st7" d="M2146.01,3667.73l-3.59-0.13c2.24-60.88-19.52-164.64-135.86-313.25c-6.22-7.94-6.22-7.94-6.07-9
								l3.56,0.51l-1.78-0.26l1.66-0.64c0.31,0.59,2.7,3.64,5.46,7.17C2126.4,3501.6,2148.27,3606.26,2146.01,3667.73z"/>
							<path class="st7" d="M2172.89,3553.08l-3.45-1c13.39-46.2,66.11-136.74,268.73-223.97c2.81-1.21,4.63-1.99,5.27-2.32
								l1.64,3.2c-0.67,0.35-2.56,1.16-5.49,2.42C2238.32,3418.06,2186.1,3507.48,2172.89,3553.08z"/>
						</g>
					</g>
				</g>
			</g>
		</g>
		<g>
			<g>
				<g>
					
						<linearGradient id="SVGID_00000119108852419974730490000014081128217231208884_" gradientUnits="userSpaceOnUse" x1="2830.0652" y1="878.3231" x2="2141.728" y2="844.4699">
						<stop  offset="0" style="stop-color:#FFC444"/>
						<stop  offset="0.9964" style="stop-color:#F36F56"/>
					</linearGradient>
					<path style="fill:url(#SVGID_00000119108852419974730490000014081128217231208884_);" d="M2137.89,650.26
						c116.26-49.03,227.13-35.81,282.48-14.97c65.44,24.63,87.15,43.11,145.08,52.41c51.49,8.27,104.94-45.44,145.08-7.49
						c2.7,2.56,6.03,5.74,9.76,11.23c28.75,42.26-5.21,93.3,4.19,182.49c4.81,45.63,16.44,58.29,27.2,145.99
						c4.09,33.35,3.24,38.26,2.09,42.11c-17.59,59.17-157.09,47.99-255.28,22.46c-135.37-35.2-178.95-94.24-267.84-67.38
						c-41,12.39-72.16,37.17-92.07,56.15C2147.65,932.88,2128.82,790.63,2137.89,650.26z"/>
					<g>
						<path class="st11" d="M2139.35,1967.52c-3.02,0-5.47-2.45-5.47-5.47V608.52c0-3.02,2.45-5.47,5.47-5.47
							c3.02,0,5.47,2.45,5.47,5.47v1353.52C2144.82,1965.07,2142.38,1967.52,2139.35,1967.52z"/>
					</g>
				</g>
			</g>
			<g>
				
					<linearGradient id="SVGID_00000090986331474924863380000014154928357046091423_" gradientUnits="userSpaceOnUse" x1="787.0894" y1="1844.7714" x2="810.6707" y2="1916.7456" gradientTransform="matrix(0.444 0.896 -0.896 0.444 3455.7615 -448.1513)">
					<stop  offset="0" style="stop-color:#FFC444"/>
					<stop  offset="0.9964" style="stop-color:#F36F56"/>
				</linearGradient>
				<path style="fill:url(#SVGID_00000090986331474924863380000014154928357046091423_);" d="M2115.35,1110.59l9.79-13.65
					c0,0-1.88-7.16,1.3-12.41c3.18-5.25,3.18-5.25,3.18-5.25s4.15-3.89,12.09-1.17c1.8,0.62,3.78,0.41,5.34-0.66
					c4.69-3.24,5.94,5.68,5.94,5.68s3.39,3.97,0.35,7.42c0,0-0.4,5.08-4.19,7.69c-3.79,2.61-13.94,6.9-13.94,6.9l-10.94,13.17
					L2115.35,1110.59z"/>
				
					<linearGradient id="SVGID_00000159430857808797768100000004674769127630634671_" gradientUnits="userSpaceOnUse" x1="493.944" y1="2627.8562" x2="771.874" y2="1985.6686" gradientTransform="matrix(0.444 0.896 -0.896 0.444 3455.7615 -448.1513)">
					<stop  offset="0" style="stop-color:#FF9085"/>
					<stop  offset="1" style="stop-color:#FB6FBB"/>
				</linearGradient>
				<path style="fill:url(#SVGID_00000159430857808797768100000004674769127630634671_);" d="M2113.8,1096.19
					c-70.02,27.88-114.95,16.97-135.9,9.11c-26.3-9.87-51.51-27.99-51.51-27.99c-35.6-25.59-49.54-51.05-84.64-56.57
					c-2.65-0.42-10.48-1.51-19.09-0.75c-50.62,4.48-106.97,71.47-99.73,116.02c12.56,77.24,227.6,156.79,345.69,70.81
					c38.02-27.68,57.05-66.01,66.76-92.04C2128.19,1108.58,2121,1102.39,2113.8,1096.19z"/>
				
					<linearGradient id="SVGID_00000172437985589211689280000017987430427639862204_" gradientUnits="userSpaceOnUse" x1="929.9914" y1="1987.8256" x2="985.5238" y2="1987.8256" gradientTransform="matrix(-0.996 0.0897 0.0897 0.996 2456.5469 -160.4537)">
					<stop  offset="0" style="stop-color:#444B8C"/>
					<stop  offset="0.9964" style="stop-color:#26264F"/>
				</linearGradient>
				<path style="fill:url(#SVGID_00000172437985589211689280000017987430427639862204_);" d="M1656.66,1894.62
					c-2.88,2.65-3.06,8.84-3.18,12.88c-0.05,1.81-0.08,2.71,0.16,3.33c1.75,4.54,10.75,4.48,24.92,5.06
					c22.39,0.92,29.11,2.26,30.65-1.15c1.44-3.2-2.82-8.04-3.29-8.57c-2.57-2.86-5.58-3.78-11.36-5.3
					c-10.71-2.81-17.91-4.27-20.1-4.72C1660.83,1893.39,1658.55,1892.89,1656.66,1894.62z"/>
				
					<linearGradient id="SVGID_00000041282088097961392100000005476366548302995349_" gradientUnits="userSpaceOnUse" x1="499.3033" y1="1935.7605" x2="523.6673" y2="1885.3325" gradientTransform="matrix(-0.9976 0.0694 0.0694 0.9976 2040.621 -60.6691)">
					<stop  offset="0" style="stop-color:#FFC444"/>
					<stop  offset="0.9964" style="stop-color:#F36F56"/>
				</linearGradient>
				<path style="fill:url(#SVGID_00000041282088097961392100000005476366548302995349_);" d="M1672.36,1872.3l0.87,25.48
					c-0.7,1.19-8.43,4.46-14.25,0.99l-4.39-25.24L1672.36,1872.3z"/>
				
					<linearGradient id="SVGID_00000043432369571161339030000014922666880513521325_" gradientUnits="userSpaceOnUse" x1="516.0774" y1="2044.8331" x2="575.0767" y2="2044.8331" gradientTransform="matrix(-0.977 0.2133 0.2133 0.977 1968.0525 -210.6557)">
					<stop  offset="0" style="stop-color:#444B8C"/>
					<stop  offset="0.9964" style="stop-color:#26264F"/>
				</linearGradient>
				<path style="fill:url(#SVGID_00000043432369571161339030000014922666880513521325_);" d="M1845.22,1894.96
					c-3.85,3.82-5.07,11.17-2.11,14.98c2.91,3.75,7.73,1.31,20.96,2.41c14.17,1.18,17.69,4.73,27.48,2.59
					c3.95-0.87,10.97-3.11,10.99-5.9c0.01-1.96-3.44-3.16-14.93-7.7c-16.31-6.45-16.22-6.75-19.72-7.52
					C1859.12,1891.87,1850.31,1889.92,1845.22,1894.96z"/>
				
					<linearGradient id="SVGID_00000112608581307292695790000001441226179768501937_" gradientUnits="userSpaceOnUse" x1="404.479" y1="1995.4728" x2="429.3589" y2="1943.9773" gradientTransform="matrix(-0.9894 0.1453 0.1453 0.9894 1974.5804 -128.6684)">
					<stop  offset="0" style="stop-color:#FFC444"/>
					<stop  offset="0.9964" style="stop-color:#F36F56"/>
				</linearGradient>
				<path style="fill:url(#SVGID_00000112608581307292695790000001441226179768501937_);" d="M1855.55,1872.3l5.85,24.06
					c-0.61,1.24-8.07,5.09-14.13,2.08l-9.34-23.55L1855.55,1872.3z"/>
				
					<linearGradient id="SVGID_00000120551466785803374220000001307507009929334165_" gradientUnits="userSpaceOnUse" x1="2217.2778" y1="1703.7963" x2="2059.9153" y2="1349.0637" gradientTransform="matrix(0.9986 0.0533 -0.0533 0.9986 -237.5799 -19.3005)">
					<stop  offset="0" style="stop-color:#311944"/>
					<stop  offset="1" style="stop-color:#893976"/>
				</linearGradient>
				<path style="fill:url(#SVGID_00000120551466785803374220000001307507009929334165_);" d="M1820,1350.38
					c-3.23,79.63-2.58,169.38,5.26,267.28c7.75,96.76,21.16,184.52,36.76,261.9c-9.21,1.96-18.42,3.92-27.64,5.87
					c-21.89-22.71-49.15-58.08-60.62-106.62c-7.12-30.13-3.4-45.21-6.98-81.99c-5.69-58.56-21.87-89.94-37.77-137.77
					c-14.29-42.98-30.54-105.8-36.61-188.93C1734.94,1363.54,1777.47,1356.96,1820,1350.38z"/>
				
					<linearGradient id="SVGID_00000057142074376519158230000014249463286376131473_" gradientUnits="userSpaceOnUse" x1="2192.8745" y1="1714.6208" x2="2035.5123" y2="1359.8889" gradientTransform="matrix(0.9986 0.0533 -0.0533 0.9986 -237.5799 -19.3005)">
					<stop  offset="0" style="stop-color:#311944"/>
					<stop  offset="1" style="stop-color:#893976"/>
				</linearGradient>
				<path style="opacity:0.3;fill:url(#SVGID_00000057142074376519158230000014249463286376131473_);" d="M1807.28,1722.5
					c-10.14-40.17-29.68-50.79-30.38-88.71c-0.49-26.82,9.15-29.01,8.51-54.68c-0.97-38.94-23.78-59.36-35.24-83.85
					c-12.1-25.87-16.74-67.42,15.88-136.53c-24.55,3.8-49.09,7.6-73.64,11.39c6.07,83.13,22.32,145.95,36.61,188.93
					c15.9,47.83,32.08,79.21,37.77,137.77c3.57,36.78-0.14,51.87,6.98,81.99c11.47,48.54,38.73,83.91,60.62,106.62
					c2.34-0.5,4.69-1,7.03-1.49c-23.67-28.25-32.02-53.48-34.14-73.95C1803.82,1776.69,1817.5,1763,1807.28,1722.5z"/>
				
					<linearGradient id="SVGID_00000170988511775888673350000003309625197195381143_" gradientUnits="userSpaceOnUse" x1="1833.5054" y1="1858.6676" x2="1676.139" y2="1503.9263" gradientTransform="matrix(0.9976 -0.0694 0.0694 0.9976 -160.8932 92.9864)">
					<stop  offset="0" style="stop-color:#311944"/>
					<stop  offset="1" style="stop-color:#893976"/>
				</linearGradient>
				<path style="fill:url(#SVGID_00000170988511775888673350000003309625197195381143_);" d="M1727.93,1345.4
					c-10.96,100.9-21.04,203.74-30.11,308.47c-6.8,78.59-12.86,156.21-18.23,232.84c-9.34,0.65-18.68,1.3-28.01,1.95
					c-8.07-17.17-18.62-43.32-25.02-76.45c-7.79-40.25-4.23-63.71-6.38-105.11c-2.41-46.43-8.95-56.87-18.38-115.78
					c-19.14-119.56-28.71-179.34,1.64-214.58C1613.3,1365.3,1643.79,1336.9,1727.93,1345.4z"/>
				
					<linearGradient id="SVGID_00000037659194203834955050000012816578823093056167_" gradientUnits="userSpaceOnUse" x1="1585.7474" y1="1411.0562" x2="1826.3556" y2="855.1046">
					<stop  offset="0" style="stop-color:#FF9085"/>
					<stop  offset="1" style="stop-color:#FB6FBB"/>
				</linearGradient>
				<path style="fill:url(#SVGID_00000037659194203834955050000012816578823093056167_);" d="M1486.1,1031.63
					c50.44-17.1,127.4-36.05,221.53-32.17c54.53,2.25,101.4,11.6,138.55,22.01c5.02,28.09,10.04,56.17,15.07,84.26
					c1.15,28.16,1.53,66.31-1.64,111.38c-3.16,45.07-6.26,45.75-13.51,109.37c-11.82,103.73-6.87,130.83-27.72,143.29
					c-13.56,8.1-18.46-1.68-87.66-8.54c-46.4-4.6-70.07-6.74-93.57,1.21c-31.99,10.83-42.7,29-55.9,23.09
					c-12.66-5.67-14.27-27.52-15.8-65.62c-2.36-58.77-2.21-98.72-2.43-113.01c-1-65.6-17.61-115.7-38.89-179.85
					C1510.83,1086.93,1496.81,1054.46,1486.1,1031.63z"/>
				<g>
					
						<linearGradient id="SVGID_00000105426094619735011780000002847818881989854854_" gradientUnits="userSpaceOnUse" x1="1895.728" y1="443.8445" x2="1901.922" y2="278.8574" gradientTransform="matrix(0.8944 0.4471 -0.4471 0.8944 171.027 -182.9961)">
						<stop  offset="0" style="stop-color:#FFC444"/>
						<stop  offset="0.9964" style="stop-color:#F36F56"/>
					</linearGradient>
					<path style="fill:url(#SVGID_00000105426094619735011780000002847818881989854854_);" d="M1701.4,934.47
						c-0.74,16.49-3.28,29.47-5.5,38.33c-2.54,10.15-4.12,12.73-6.07,14.78c-2.93,3.09-7.26,5.58-31.2,10.18
						c-13.03,2.5-14.68,2.33-15.03,3.59c-1.72,6.15,32.21,29.23,68.7,26.06c22.33-1.94,43.18-13.51,42.29-20.22
						c-0.89-6.75-23.22-4.35-29.18-16.79c-4.14-8.66,1.64-20.32,8.25-29.89C1728.38,949.15,1706.7,945.82,1701.4,934.47z"/>
					<g>
						
							<linearGradient id="SVGID_00000015355218027138111160000005211392775273353345_" gradientUnits="userSpaceOnUse" x1="75.1032" y1="769.3533" x2="33.1081" y2="662.6934" gradientTransform="matrix(-0.9988 -0.0496 -0.0496 0.9988 1789.584 252.4768)">
							<stop  offset="0" style="stop-color:#311944"/>
							<stop  offset="1" style="stop-color:#6B3976"/>
						</linearGradient>
						<path style="fill:url(#SVGID_00000015355218027138111160000005211392775273353345_);" d="M1742.19,943.18
							c5.6-6.67,6.57-18.78,0.95-26.78c-4.84-6.88-12.95-8.25-17.8-9.08c-14.07-2.39-32.26,2.57-39.17,15.27
							c-4.09,7.53,3.01,24,4.11,26.95c1.24,3.34,3.74,4.59,5.98,7.19c3.1,3.6,7.95,9.31,15.86,18.86c0.8-2.65,1.96-5.92,3.73-9.44
							c0.68-1.35,3.4-6.64,7.33-10.93C1731.03,946.61,1736.88,949.5,1742.19,943.18z"/>
						
							<linearGradient id="SVGID_00000183967920530917220340000000722396286715028132_" gradientUnits="userSpaceOnUse" x1="1427.324" y1="730.7196" x2="1425.3927" y2="886.3246" gradientTransform="matrix(0.9999 -0.0116 0.0116 0.9999 281.3529 228.061)">
							<stop  offset="0" style="stop-color:#FFC444"/>
							<stop  offset="0.9964" style="stop-color:#F36F56"/>
						</linearGradient>
						<path style="fill:url(#SVGID_00000183967920530917220340000000722396286715028132_);" d="M1700.55,967.3
							c0,0,8.49,15.77,27.09,15.55c16.65-0.19,21.07-37.28,10.89-45.74c-3.4-2.82-10.42-4.3-16.27-2.99
							c-3.45,0.77-4.68,2.12-10.35,3.27c-5.23,1.06-6.65,0.41-8.28,1.64c-2.03,1.53-3.67,5.47-1,16.53c-3-3.37-6.73-4.81-9.49-3.68
							c-0.44,0.18-1.62,0.9-2.33,2.04C1688.29,958.04,1691.88,963.68,1700.55,967.3z"/>
						
							<linearGradient id="SVGID_00000165234657753396311740000007223399689799153819_" gradientUnits="userSpaceOnUse" x1="62.275" y1="774.4615" x2="20.2364" y2="667.6912" gradientTransform="matrix(-0.9988 -0.0496 -0.0496 0.9988 1789.584 252.4768)">
							<stop  offset="0" style="stop-color:#311944"/>
							<stop  offset="1" style="stop-color:#6B3976"/>
						</linearGradient>
						<path style="fill:url(#SVGID_00000165234657753396311740000007223399689799153819_);" d="M1703.02,936.77
							c0.77,0.64-1.84,3.49-2.25,7.71c-0.79,8.18,6.98,18.48,15.41,19.76c4.98,0.76,6.52-2.18,14.84-2.62
							c5.16-0.27,9.39,0.61,12.04,1.34c2.12,9.14-0.81,17.97-7.04,21.82c-6.71,4.14-14.84,0.98-18.24-0.35
							c-2.27-0.88-9.56-3.7-13.07-10.71c-3.66-7.3,0.53-11.36-3.84-16.4c-2.21-2.54-5.22-3.75-7.96-8.59
							c-0.74-1.31-1.22-2.47-1.52-3.24C1695.94,941.2,1701.91,935.84,1703.02,936.77z"/>
						
							<linearGradient id="SVGID_00000102523000590884955440000006578844039081714824_" gradientUnits="userSpaceOnUse" x1="21.1319" y1="710.1287" x2="23.3182" y2="729.6189" gradientTransform="matrix(-0.9988 -0.0496 -0.0496 0.9988 1789.584 252.4768)">
							<stop  offset="0" style="stop-color:#FFC444"/>
							<stop  offset="1" style="stop-color:#F36F56"/>
						</linearGradient>
						<path style="fill:url(#SVGID_00000102523000590884955440000006578844039081714824_);" d="M1736.87,965.98
							c0,0-3.68,1.68-9.86,1c-0.3-0.03-0.64,0.04-0.68,0.19c-0.17,0.58,3.66,3.43,7.38,2.59c2.64-0.59,4.79-2.95,4.48-3.59
							C1738.04,965.91,1737.45,965.91,1736.87,965.98z"/>
					</g>
				</g>
				
					<linearGradient id="SVGID_00000166654125884726131610000014872664872495241871_" gradientUnits="userSpaceOnUse" x1="1557.9542" y1="1295.6702" x2="1569.1228" y2="1329.7588">
					<stop  offset="0" style="stop-color:#FFC444"/>
					<stop  offset="0.9964" style="stop-color:#F36F56"/>
				</linearGradient>
				<path style="fill:url(#SVGID_00000166654125884726131610000014872664872495241871_);" d="M1532.64,1306.96l16.7-0.93
					c0,0,18.29-15.31,26.62-14.35c8.33,0.95,20.78,6.73,22.3,7.95c1.52,1.21-4.56,8-10.63,7.34c-6.08-0.66-19.63,2.62-22.06,7.97
					c-2.42,5.35-12.95,8.59-14.74,5.45l-22.45,4.45L1532.64,1306.96z"/>
				
					<linearGradient id="SVGID_00000014615062515943903280000006832894373386544276_" gradientUnits="userSpaceOnUse" x1="1401.3733" y1="1331.2611" x2="1641.9823" y2="775.3079">
					<stop  offset="0" style="stop-color:#FF9085"/>
					<stop  offset="1" style="stop-color:#FB6FBB"/>
				</linearGradient>
				<path style="fill:url(#SVGID_00000014615062515943903280000006832894373386544276_);" d="M1537.69,1301.11
					c1.17,13.7-1.81,23-6.79,29.38c-22.07,28.28-97.07,16.72-141.65-21.16c-33-28.04-50.47-71.57-49.82-110.58
					c1.26-76.12,71.8-150.7,176.74-176.47c15.53,46.43,31.07,92.86,46.6,139.3c-64.69,0.99-104,49.76-98.17,84.57
					C1468.93,1272.08,1499.18,1295.41,1537.69,1301.11z"/>
				
					<linearGradient id="SVGID_00000056404948618586125110000010563078968071180702_" gradientUnits="userSpaceOnUse" x1="1629.9742" y1="1430.1967" x2="1870.5844" y2="874.2408">
					<stop  offset="0" style="stop-color:#FF9085"/>
					<stop  offset="1" style="stop-color:#FB6FBB"/>
				</linearGradient>
				<path style="opacity:0.3;fill:url(#SVGID_00000056404948618586125110000010563078968071180702_);" d="M1791.48,1435.71
					c-34.03-14.52-33.83-44.57-65.62-57.11c-45.36-17.9-95.47,23.68-103.29,12.15c-8.14-12,51.71-48.78,43.75-85.06
					c-6.33-28.83-48.11-23.72-70.48-63.19c-21.23-37.44-0.65-72.05-19.44-85.06c-6.74-4.67-18.63-6.51-41.17,3.41
					c15.72,49.09,26.99,92.39,27.81,146.06c0.22,14.3,0.07,54.24,2.43,113.01c1.53,38.1,3.14,59.95,15.8,65.62
					c13.2,5.91,23.91-12.26,55.9-23.09c23.5-7.95,47.17-5.81,93.57-1.21c69.19,6.86,74.1,16.64,87.66,8.54
					c8.83-5.28,13.03-13.21,15.84-28.46C1820.34,1442.81,1805.63,1441.75,1791.48,1435.71z"/>
			</g>
		</g>
		<g>
			<g>
				<g>
					<path class="st30" d="M1612.03,2287.62c-192.65,6.84-385.23,14.64-577.74,23.39c-53.05,2.41-96.3-56.19-97.47-130.95
						c-0.26-16.91-0.52-33.81-0.78-50.72c-1.18-74.76,40.42-139.76,93.78-145.16c193.44-19.6,387.07-38.24,580.86-55.91
						C1611.13,2048.05,1611.58,2167.84,1612.03,2287.62z"/>
					
						<linearGradient id="SVGID_00000016785517190747237490000004590731033694725506_" gradientUnits="userSpaceOnUse" x1="2565.678" y1="2114.0527" x2="3370.6191" y2="2122.8499" gradientTransform="matrix(1 0 0 1 -1675.0461 0)">
						<stop  offset="0" style="stop-color:#AA80F9"/>
						<stop  offset="0.9964" style="stop-color:#6165D7"/>
					</linearGradient>
					<path style="fill:url(#SVGID_00000016785517190747237490000004590731033694725506_);" d="M1530.78,2304.27
						c-163.06,7.27-326.07,15.23-489.01,23.87c-69.15,2.93-125.44-73.62-127.01-170.74c0-0.36-0.01-0.71-0.02-1.07
						c-1.55-97.12,52.55-182.02,122.13-189.25c163.8-20.2,327.76-39.72,491.87-58.54c8.64-0.83,108.88,7.82,108.92,18.48
						c0.03,10.61-93.48,19.04-102.05,19.82c-166.24,17.68-332.33,36.06-498.27,55.15c-56.18,5.51-100.09,73.95-98.87,152.56
						c0.01,0.36,0.01,0.71,0.02,1.07c1.23,78.61,46.91,140.31,102.8,137.61c163.03-9.76,326.13-18.83,489.29-27.22
						c8.54-0.39,108.24,10.01,108.26,20.67C1638.87,2297.28,1539.35,2303.93,1530.78,2304.27z"/>
				</g>
				<g>
					<path class="st3" d="M2723.28,2275.69c-393.56-0.92-787.06,2.16-1180.44,9.23c-0.59-119.45-1.18-238.9-1.78-358.35
						c395.86,3.19,791.62,10.4,1187.24,21.62C2726.63,2057.35,2724.96,2166.52,2723.28,2275.69z"/>
					
						<linearGradient id="SVGID_00000023259833737895929810000007411714540557493179_" gradientUnits="userSpaceOnUse" x1="-4717.8823" y1="1147.0632" x2="-6886.4067" y2="945.5363" gradientTransform="matrix(1 0 0 1 -1675.0461 0)">
						<stop  offset="0" style="stop-color:#AA80F9"/>
						<stop  offset="0.9964" style="stop-color:#6165D7"/>
					</linearGradient>
					<path style="fill:url(#SVGID_00000023259833737895929810000007411714540557493179_);" d="M2737.83,1967.01
						c-402.85-10.9-805.83-17.64-1208.9-20.21c-8.18-0.05-14.85-8.67-14.9-19.24c-0.08-10.58,6.54-19.09,14.71-19.02
						c403.34,3.69,806.58,11.54,1209.64,23.56c6.8,0.2,12.17,8.18,12.02,17.8C2750.24,1959.53,2744.62,1967.19,2737.83,1967.01z"/>
					
						<linearGradient id="SVGID_00000113337469857351954850000004864311387941554857_" gradientUnits="userSpaceOnUse" x1="-4687.2769" y1="1491.8792" x2="-6841.9248" y2="1291.6418" gradientTransform="matrix(1 0 0 1 -1675.0461 0)">
						<stop  offset="0" style="stop-color:#AA80F9"/>
						<stop  offset="0.9964" style="stop-color:#6165D7"/>
					</linearGradient>
					<path style="fill:url(#SVGID_00000113337469857351954850000004864311387941554857_);" d="M2732.78,2293.17
						c-400.76-0.44-801.45,3.26-1202,11.1c-8.09,0.16-14.76-8.29-14.81-18.86c-0.06-10.58,6.49-19.26,14.61-19.4
						c400.82-6.73,801.76-9.31,1202.74-7.75c6.76,0.02,12.11,7.86,11.96,17.48C2745.13,2285.38,2739.53,2293.17,2732.78,2293.17z"/>
				</g>
			</g>
			<g>
				
					<linearGradient id="SVGID_00000052062090415228866880000005883897262660043199_" gradientUnits="userSpaceOnUse" x1="3059.6641" y1="2183.6543" x2="2831.4319" y2="2952.4377" gradientTransform="matrix(1 0 0 1 -1675.0461 0)">
					<stop  offset="0" style="stop-color:#40447E"/>
					<stop  offset="0.9964" style="stop-color:#3C3B6B"/>
				</linearGradient>
				<path style="fill:url(#SVGID_00000052062090415228866880000005883897262660043199_);" d="M1619.58,2298.57h-0.11l-18.25-0.14
					l-79.45,2.41l-469.19,16.36c-13.9,0.36-27.19,2.92-39.58,7.59c-54.05,20.36-90.83,78.5-86.78,145.56l0.07,0.87
					c4.45,74.2,57.47,134.25,122.26,143.44c6.68,0.97,13.54,1.36,20.44,1.18l392.83-15.34l62.21-2.44l23.96-0.93l69.1-3.07
					l14.44-0.95h0.11l4.92,0.2l10.02-0.21l0.29-2.85l1.15-12.6l0.14-1.52l0.93-10.26l22.12-241.61l1.4-15.3l0.65-7.29l0.61-5.78
					L1619.58,2298.57z"/>
				<g>
					<path class="st3" d="M2725.2,2573.48l-1035.2,6.49c-86.13,0.54-157.41-49.62-159.63-112.24l-1.51-42.61
						c-2.23-63,65.98-115.25,152.76-116.5l1043.37-15L2725.2,2573.48z"/>
					
						<linearGradient id="SVGID_00000025415518375936375500000009210418505455658881_" gradientUnits="userSpaceOnUse" x1="3180.6001" y1="2436.9587" x2="4425.4497" y2="2436.9587" gradientTransform="matrix(1 0 0 1 -1675.0461 0)">
						<stop  offset="0" style="stop-color:#40447E"/>
						<stop  offset="0.9964" style="stop-color:#3C3B6B"/>
					</linearGradient>
					<path style="fill:url(#SVGID_00000025415518375936375500000009210418505455658881_);" d="M2736.38,2588.21l-1090.32,6.37
						c-74.59,0.44-137.42-65.35-140.36-147l-0.03-0.9c-2.96-82.04,55.57-149.97,130.79-151.08l1099.8-16.26
						c7.81-0.12,14.15,6.54,14.15,14.86c0,8.31-6.33,15.14-14.14,15.25l-1098.88,15.29c-60.61,0.84-107.85,55.53-105.51,121.68
						l0.03,0.9c2.33,65.89,53.03,118.99,113.23,118.59l1091.23-7.31c7.75-0.05,14.04,6.54,14.04,14.73
						C2750.4,2581.5,2744.12,2588.17,2736.38,2588.21z"/>
				</g>
			</g>
			<g>
				
					<linearGradient id="SVGID_00000048502791687311206450000005263374542977769093_" gradientUnits="userSpaceOnUse" x1="3086.0059" y1="2722.6343" x2="2814.4509" y2="3637.3477" gradientTransform="matrix(1 0 0 1 -1675.0461 0)">
					<stop  offset="0" style="stop-color:#40447E"/>
					<stop  offset="0.9964" style="stop-color:#3C3B6B"/>
				</linearGradient>
				<path style="fill:url(#SVGID_00000048502791687311206450000005263374542977769093_);" d="M1634.23,2840.74l-17.13,0.57
					l-62.57,2.12l-33.37,1.15l-286.01,9.66l-12,0.43l-54.31,1.83l-86.99,2.95l-35.16,1.19c-11.03,0.22-21.69,2.55-31.82,6.79
					c-6.9,2.84-13.27,6.57-19.63,11.06c-42.99,30.46-72.32,96.47-72.32,172.26v1.15c0,103.41,54.86,190.07,124.04,193.23
					l570.34,15.91l36.28,1.01l1.98-20.22l0.99-9.81l33.68-336.11l2.37-19.36l2.55-20.98v-0.04l0.9-13.4l0.14-3.48L1634.23,2840.74z"
					/>
				<g>
					<path class="st3" d="M2725.97,2862.43v348.79l-284.36,11.24l-722.33,28.48c-22.63,0.9-44.16-2.41-63.99-9.12
						c-62.86-21.37-107.41-77.33-107.41-144.78v-60.2c0-79.95,62.84-146.97,144.22-160.3c8.94-1.47,18.16-2.3,27.5-2.41l633.09-7.36
						L2725.97,2862.43z"/>
					
						<linearGradient id="SVGID_00000124131757576019487580000008960591036164763308_" gradientUnits="userSpaceOnUse" x1="1522.7472" y1="3058.8191" x2="2749.3918" y2="3058.8191">
						<stop  offset="0" style="stop-color:#40447E"/>
						<stop  offset="0.9964" style="stop-color:#3C3B6B"/>
					</linearGradient>
					<path style="fill:url(#SVGID_00000124131757576019487580000008960591036164763308_);" d="M2749.39,3210.36
						c0,10.24-5.49,18.78-12.25,19.07l-272.76,11.17l-793.12,32.43c-19.04,0.79-36.47-3.52-53.28-12
						c-55.96-28.23-95.23-102.97-95.23-192.16v-1.26c0-115.51,66.47-210.3,148.43-211.8l0.49-0.04l22.82-0.25l666.31-6.99
						l376.35-4.04c0.04,0,0.04,0,0.07,0c6.72,0,12.18,8.42,12.18,18.66c0,10.24-5.49,18.74-12.25,18.81l-9.73,0.19l-380.65,5.05
						l-656.53,8.67l-18.48,0.26c-66.3,0.86-120.27,77.44-120.27,170.72v1.26c0,86.27,46.1,155.92,105.54,163.89
						c4.85,0.65,9.49,0.86,14.48,0.68l752.09-28.55l303.87-11.53l9.7-0.36C2743.93,3192.01,2749.39,3200.09,2749.39,3210.36z"/>
				</g>
				<g>
					<path class="st30" d="M1617.11,2845.64l-577.64,13.01c-53.09,1.2-95.42-40.84-95.42-93.86v-35.97
						c0-53.03,42.33-98.65,95.42-101.97l577.64-36.06V2845.64z"/>
					
						<linearGradient id="SVGID_00000148661033593685378740000010992390979962666161_" gradientUnits="userSpaceOnUse" x1="2573.3877" y1="2719.4158" x2="3374.9487" y2="2728.176" gradientTransform="matrix(1 0 0 1 -1675.0461 0)">
						<stop  offset="0" style="stop-color:#FFC444"/>
						<stop  offset="0.9964" style="stop-color:#F36F56"/>
					</linearGradient>
					<path style="fill:url(#SVGID_00000148661033593685378740000010992390979962666161_);" d="M1535.83,2857.19l-489.12,13.68
						c-69.21,1.41-124.31-53.5-124.31-122.39v-0.76c0-68.88,55.1-128.47,124.31-132.93l489.12-38.25
						c8.58-0.54,108.08,5.89,108.08,13.43c0,7.54-92.94,13.25-101.46,13.76l-495.74,35.82c-55.91,3.36-100.62,51.41-100.62,107.17
						v0.76c0,55.75,44.7,100.01,100.62,98.63l489.12-16.05c8.52-0.22,108.08,7.44,108.08,14.98S1544.4,2857,1535.83,2857.19z"/>
				</g>
				<g>
					<polygon class="st3" points="2725.97,2600.34 2725.97,2832.62 2365.87,2835.96 1695.26,2842.14 1640.59,2842.64 
						1617.01,2842.86 1554.44,2843.43 1547.89,2843.5 1547.89,2589.39 1611.57,2589.5 1611.64,2589.5 1643.82,2590.05 
						1646.88,2590.21 1928.94,2592.89 					"/>
					
						<linearGradient id="SVGID_00000152959607891140522610000016203335488419583371_" gradientUnits="userSpaceOnUse" x1="-4651.2427" y1="1809.7838" x2="-6803.5972" y2="1609.7596" gradientTransform="matrix(1 0 0 1 -1675.0461 0)">
						<stop  offset="0" style="stop-color:#FFC444"/>
						<stop  offset="0.9964" style="stop-color:#F36F56"/>
					</linearGradient>
					<path style="fill:url(#SVGID_00000152959607891140522610000016203335488419583371_);" d="M2737.16,2613.58l-1201.32-9.9
						c-8.12-0.07-14.71-6.2-14.71-13.7c0-7.5,6.59-13.51,14.71-13.43l1201.32,12.28c6.75,0.07,12.22,5.66,12.22,12.49
						C2749.37,2608.14,2743.91,2613.63,2737.16,2613.58z"/>
					
						<linearGradient id="SVGID_00000016772556205454415070000009924546351897072799_" gradientUnits="userSpaceOnUse" x1="-6348.48" y1="2050.9392" x2="-8500.7812" y2="1850.92">
						<stop  offset="0" style="stop-color:#FFC444"/>
						<stop  offset="0.9964" style="stop-color:#F36F56"/>
					</linearGradient>
					<path style="fill:url(#SVGID_00000016772556205454415070000009924546351897072799_);" d="M2749.39,2832.21
						c0,6.79-5.46,12.3-12.18,12.3c-0.04,0-0.04,0-0.07,0l-376.45,4.04l-666.41,6.92l-23.02,0.27l-0.9,0.9l-134.55,2.23h-0.14
						c-6.54,0-12.03-4.76-13.9-10.22c-0.32-1.04-0.54-2.54-0.61-3.65c-0.04-0.25-0.04-0.71-0.04-1c0-7.51,6.57-13.86,14.69-13.86
						h0.47L1548,2830l69.1-0.59l756.13-6.22l354.18-2.95l9.73-0.17C2743.9,2819.99,2749.39,2825.38,2749.39,2832.21z"/>
				</g>
				<path class="st41" d="M1490.89,3214.99l-128.98-7.37c-31.17-88.86-28.81-174.54,0-278.79l128.98,0.39
					C1465.03,3035.65,1468.97,3129.78,1490.89,3214.99z"/>
				
					<linearGradient id="SVGID_00000140715161082918402700000009725085981329153166_" gradientUnits="userSpaceOnUse" x1="2835.762" y1="2920.6338" x2="2779.5898" y2="2837.4697" gradientTransform="matrix(1 0 0 1 -1675.0461 0)">
					<stop  offset="0" style="stop-color:#FFC444"/>
					<stop  offset="0.9964" style="stop-color:#F36F56"/>
				</linearGradient>
				<path style="opacity:0.3;fill:url(#SVGID_00000140715161082918402700000009725085981329153166_);" d="M1223.53,2868.87
					l-4.1-160.88l-148.06,162.99c0,0-80.01,43.12-66.26,118.84l91.53-36.41l81.3,28.17
					C1177.93,2981.58,1179.97,2902.05,1223.53,2868.87z"/>
				
					<linearGradient id="SVGID_00000051361321802516951900000007386559527391564426_" gradientUnits="userSpaceOnUse" x1="1148.1443" y1="2968.0444" x2="1277.0096" y2="3395.9739">
					<stop  offset="3.597120e-03" style="stop-color:#E38DDD"/>
					<stop  offset="1" style="stop-color:#9571F6"/>
				</linearGradient>
				<path style="fill:url(#SVGID_00000051361321802516951900000007386559527391564426_);" d="M1054.72,2718.05l164.71-10.07
					c0,0-77.46,58.86-41.5,273.59c0,0-70.41-22.37-101.04-60.66l-71.78,68.9C1005.1,2989.82,961.28,2798.9,1054.72,2718.05z"/>
			</g>
		</g>
		<g>
			
				<linearGradient id="SVGID_00000181071201600031915050000010955998404583501976_" gradientUnits="userSpaceOnUse" x1="649.5756" y1="2664.6833" x2="1126.3556" y2="2664.6833">
				<stop  offset="0" style="stop-color:#AA80F9"/>
				<stop  offset="0.9964" style="stop-color:#6165D7"/>
			</linearGradient>
			<path style="fill:url(#SVGID_00000181071201600031915050000010955998404583501976_);" d="M1117.82,2034.67
				c-6.46-2.35-13.38,0.35-15.45,6.03l-452.2,1239.45c-2.07,5.68,1.48,12.2,7.95,14.55c6.46,2.35,13.38-0.35,15.45-6.03
				l452.2-1239.45C1127.84,2043.54,1124.28,2037.02,1117.82,2034.67z"/>
			
				<linearGradient id="SVGID_00000017494860125522956630000010961304172574951080_" gradientUnits="userSpaceOnUse" x1="1048.64" y1="2203.3865" x2="1353.9363" y2="2203.3865">
				<stop  offset="0" style="stop-color:#AA80F9"/>
				<stop  offset="0.9964" style="stop-color:#6165D7"/>
			</linearGradient>
			<path style="fill:url(#SVGID_00000017494860125522956630000010961304172574951080_);" d="M1353.94,2204.06
				c0,6.57-5.33,11.9-11.9,11.9h-281.5c-6.57,0-11.9-5.33-11.9-11.9v-1.35c0-6.57,5.33-11.9,11.9-11.9h281.5
				c6.57,0,11.9,5.33,11.9,11.9V2204.06z"/>
			
				<linearGradient id="SVGID_00000124139933008532596050000004191277153204569234_" gradientUnits="userSpaceOnUse" x1="966.0304" y1="2429.6648" x2="1271.3267" y2="2429.6648">
				<stop  offset="0" style="stop-color:#AA80F9"/>
				<stop  offset="0.9964" style="stop-color:#6165D7"/>
			</linearGradient>
			<path style="fill:url(#SVGID_00000124139933008532596050000004191277153204569234_);" d="M1271.33,2430.34
				c0,6.57-5.33,11.9-11.9,11.9h-281.5c-6.57,0-11.9-5.33-11.9-11.9v-1.35c0-6.57,5.33-11.9,11.9-11.9h281.5
				c6.57,0,11.9,5.33,11.9,11.9V2430.34z"/>
			
				<linearGradient id="SVGID_00000042002098996646716580000013955684110440820874_" gradientUnits="userSpaceOnUse" x1="883.4208" y1="2659.5349" x2="1188.717" y2="2659.5349">
				<stop  offset="0" style="stop-color:#AA80F9"/>
				<stop  offset="0.9964" style="stop-color:#6165D7"/>
			</linearGradient>
			<path style="fill:url(#SVGID_00000042002098996646716580000013955684110440820874_);" d="M1188.72,2660.21
				c0,6.57-5.33,11.9-11.9,11.9h-281.5c-6.57,0-11.9-5.33-11.9-11.9v-1.35c0-6.57,5.33-11.9,11.9-11.9h281.5
				c6.57,0,11.9,5.33,11.9,11.9V2660.21z"/>
			
				<linearGradient id="SVGID_00000098918474481810510700000001385110085170781854_" gradientUnits="userSpaceOnUse" x1="797.2195" y1="2896.5886" x2="1102.5157" y2="2896.5886">
				<stop  offset="0" style="stop-color:#AA80F9"/>
				<stop  offset="0.9964" style="stop-color:#6165D7"/>
			</linearGradient>
			<path style="fill:url(#SVGID_00000098918474481810510700000001385110085170781854_);" d="M1102.52,2897.26
				c0,6.57-5.33,11.9-11.9,11.9h-281.5c-6.57,0-11.9-5.33-11.9-11.9v-1.35c0-6.57,5.33-11.9,11.9-11.9h281.5
				c6.57,0,11.9,5.33,11.9,11.9V2897.26z"/>
			
				<linearGradient id="SVGID_00000010307040080195180040000013891306206581495702_" gradientUnits="userSpaceOnUse" x1="714.6099" y1="3122.8669" x2="1019.9062" y2="3122.8669">
				<stop  offset="0" style="stop-color:#AA80F9"/>
				<stop  offset="0.9964" style="stop-color:#6165D7"/>
			</linearGradient>
			<path style="fill:url(#SVGID_00000010307040080195180040000013891306206581495702_);" d="M1019.91,3123.54
				c0,6.57-5.33,11.9-11.9,11.9h-281.5c-6.57,0-11.9-5.33-11.9-11.9v-1.35c0-6.57,5.33-11.9,11.9-11.9h281.5
				c6.57,0,11.9,5.33,11.9,11.9V3123.54z"/>
			
				<linearGradient id="SVGID_00000087414310033725331280000008536413112311941279_" gradientUnits="userSpaceOnUse" x1="923.9401" y1="2677.5259" x2="1416.3555" y2="2677.5259">
				<stop  offset="0" style="stop-color:#AA80F9"/>
				<stop  offset="0.9964" style="stop-color:#6165D7"/>
			</linearGradient>
			<path style="fill:url(#SVGID_00000087414310033725331280000008536413112311941279_);" d="M1407.54,2026.09
				c-6.67-2.43-13.82,0.36-15.96,6.24L924.55,3313.92c-2.14,5.88,1.53,12.61,8.21,15.04c6.67,2.43,13.82-0.36,15.96-6.24
				l467.03-1281.59C1417.89,2035.26,1414.21,2028.52,1407.54,2026.09z"/>
		</g>
	</g>
</g>
</svg>
